<?xml version="1.0" encoding="iso-8859-1"?>
<!-- Generator: Adobe Illustrator 19.0.0, SVG Export Plug-In . SVG Version: 6.00 Build 0)  -->
<svg version="1.1" id="Layer_1" xmlns="http://www.w3.org/2000/svg" xmlns:xlink="http://www.w3.org/1999/xlink" x="0px" y="0px"
	 viewBox="0 0 512 512" style="enable-background:new 0 0 512 512;" xml:space="preserve">
<g>
	<g>
		<path d="M464.408,107.309c-60.46,24.078-100.861,83.388-100.861,148.69c0,65.304,40.402,124.612,100.861,148.69
			C494.367,362.774,512,311.446,512,255.999S494.367,149.224,464.408,107.309z"/>
	</g>
</g>
<g>
	<g>
		<path d="M47.59,107.312C17.632,149.227,0,200.552,0,255.999s17.633,106.775,47.59,148.689
			c60.458-24.079,100.859-83.388,100.859-148.689S108.047,131.389,47.59,107.312z"/>
	</g>
</g>
<g>
	<g>
		<path d="M73.347,76.653c30.853,14.591,57.352,36.817,77.27,65.023c23.703,33.568,36.232,73.099,36.232,114.323
			c0,41.225-12.53,80.758-36.233,114.326c-19.918,28.205-46.415,50.431-77.267,65.021c42.257,43.03,99.588,71.203,163.452,75.937
			V0.715C172.936,5.45,115.603,33.622,73.347,76.653z"/>
	</g>
</g>
<g>
	<g>
		<path d="M361.382,370.328c-23.706-33.568-36.236-73.101-36.236-114.328c0-41.225,12.529-80.758,36.232-114.324
			c19.918-28.207,46.418-50.433,77.272-65.024C396.394,33.622,339.063,5.45,275.2,0.715v510.57
			c63.863-4.735,121.195-32.908,163.451-75.937C407.799,420.76,381.3,398.534,361.382,370.328z"/>
	</g>
</g>
<g>
</g>
<g>
</g>
<g>
</g>
<g>
</g>
<g>
</g>
<g>
</g>
<g>
</g>
<g>
</g>
<g>
</g>
<g>
</g>
<g>
</g>
<g>
</g>
<g>
</g>
<g>
</g>
<g>
</g>
</svg>
