<?xml version="1.0" encoding="iso-8859-1"?>
<!-- Generator: Adobe Illustrator 19.0.0, SVG Export Plug-In . SVG Version: 6.00 Build 0)  -->
<svg version="1.1" id="Capa_1" xmlns="http://www.w3.org/2000/svg" xmlns:xlink="http://www.w3.org/1999/xlink" x="0px" y="0px"
	 viewBox="0 0 217.645 217.645" style="enable-background:new 0 0 217.645 217.645;" xml:space="preserve">
<g>
	<path d="M217.59,122.031c-0.891-18.588-14.495-33.939-31.158-33.939c-16.394,0-29.257,13.643-29.257,13.643
		s-12.128-13.643-29.258-13.643c-16.662,0-30.267,15.351-31.158,33.939c-0.502,10.5,2.528,18.491,6.798,25.73
		c8.53,14.461,53.672,43.793,53.672,43.793s44.975-29.207,53.562-43.793C215.072,140.489,218.093,132.531,217.59,122.031z"/>
	<path d="M90.639,155.38c-4.165-7.06-9.616-18.273-8.861-34.065c1.295-27.042,21.563-48.223,46.141-48.223
		c12.22,0,22.323,4.652,29.398,9.335c7.144-4.655,17.271-9.335,29.116-9.335c2.098,0,4.161,0.166,6.186,0.465
		c-4.138-26.572-24.543-47.465-49.123-47.465c-26.219,0-46.789,21.819-46.789,21.819S77.312,26.091,49.916,26.091
		c-26.647,0-48.405,24.55-49.829,54.277c-0.803,16.793,4.042,29.571,10.872,41.148c13.641,23.126,85.835,70.037,85.835,70.037
		s7.369-4.786,17.834-12.054C104.31,171.239,94.814,162.459,90.639,155.38z"/>
</g>
<g>
</g>
<g>
</g>
<g>
</g>
<g>
</g>
<g>
</g>
<g>
</g>
<g>
</g>
<g>
</g>
<g>
</g>
<g>
</g>
<g>
</g>
<g>
</g>
<g>
</g>
<g>
</g>
<g>
</g>
</svg>
