<?xml version="1.0" ?><svg width="512px" height="512px" viewBox="0 0 512 512" xmlns="http://www.w3.org/2000/svg"><g id="School_bus"><path d="M321.4221,361.1694c1.7774,57.816,85.7163,57.83,87.5.0011C407.1469,303.3556,323.208,303.3406,321.4221,361.1694Z"/><path d="M85.1743,361.1694c1.7773,57.816,85.7162,57.83,87.5.0011C170.8991,303.3545,86.96,303.3406,85.1743,361.1694Z"/><path d="M465.8356,159.8756c3.042-27.3491-15.2954-52.3632-43.75-52.4124h-271.25a43.6541,43.6541,0,0,0-43.75,43.75v105h-.0876L61.7612,275.55a26.2963,26.2963,0,0,0-15.9256,24.2377v48.3a13.0922,13.0922,0,0,0,13.125,13.125c3.3838-92.8641,136.5842-92.8213,140,0h96.25c3.3838-92.8641,136.5842-92.8213,140,0h17.5a13.1065,13.1065,0,0,0,13.125-13.125C465.8441,348.0925,465.8292,159.89,465.8356,159.8756Zm-275.625,96.3376h-56.875v-96.25h56.875Zm83.125,0h-56.875v-96.25h56.875Zm83.125,0h-56.875v-96.25h56.875Zm83.125,0h-56.875v-96.25h56.875Z"/></g></svg>