<?xml version="1.0" encoding="iso-8859-1"?>
<!-- Generator: Adobe Illustrator 19.0.0, SVG Export Plug-In . SVG Version: 6.00 Build 0)  -->
<svg version="1.1" id="Layer_1" xmlns="http://www.w3.org/2000/svg" xmlns:xlink="http://www.w3.org/1999/xlink" x="0px" y="0px"
	 viewBox="0 0 512.001 512.001" style="enable-background:new 0 0 512.001 512.001;" xml:space="preserve">
<g>
	<g>
		<path d="M503.014,241.16l-152.623-79.553L270.838,8.985c-6.312-12.112-23.522-11.836-29.678,0l-79.553,152.622L8.985,241.161
			c-11.855,6.177-12.104,23.371,0,29.677l152.62,79.554l79.554,152.62c6.159,11.844,23.364,12.114,29.678,0l79.554-152.62
			l152.622-79.554C514.945,264.608,515.049,247.444,503.014,241.16z M272.732,85.026l44.741,85.834l-27.501,27.499
			c-5.323-3.149-11.109-5.595-17.24-7.179V85.026z M239.377,85.029v106.154c-6.131,1.584-12.03,4.03-17.352,7.179l-27.501-27.499
			L239.377,85.029z M170.859,194.526l27.501,27.501c-3.149,5.323-5.595,11.108-7.179,17.24H85.026L170.859,194.526z M85.026,272.622
			h106.155c1.584,6.131,4.03,12.029,7.179,17.352l-27.501,27.501L85.026,272.622z M239.377,426.973l-44.853-85.833l27.501-27.501
			c5.323,3.149,11.22,5.595,17.352,7.179V426.973z M256,289.467c-18.454,0-33.468-15.014-33.468-33.468
			c0-18.454,15.014-33.468,33.468-33.468s33.467,15.014,33.467,33.468S274.453,289.467,256,289.467z M272.732,426.973V320.817
			c6.132-1.584,11.918-4.03,17.24-7.179l27.501,27.501L272.732,426.973z M341.139,317.474l-27.501-27.501
			c3.149-5.323,5.595-11.22,7.178-17.351H426.97L341.139,317.474z M320.816,239.265c-1.584-6.131-4.03-11.918-7.178-17.239
			l27.501-27.501l85.832,44.74H320.816z"/>
	</g>
</g>
<g>
</g>
<g>
</g>
<g>
</g>
<g>
</g>
<g>
</g>
<g>
</g>
<g>
</g>
<g>
</g>
<g>
</g>
<g>
</g>
<g>
</g>
<g>
</g>
<g>
</g>
<g>
</g>
<g>
</g>
</svg>
