<?xml version="1.0" encoding="utf-8"?>

<!-- Uploaded to: SVG Repo, www.svgrepo.com, Generator: SVG Repo Mixer Tools -->
<svg fill="#000000" version="1.1" id="Layer_1" xmlns="http://www.w3.org/2000/svg" xmlns:xlink="http://www.w3.org/1999/xlink" 
	 viewBox="0 0 24 24" xml:space="preserve">
<style type="text/css">
	.st0{fill:none;}
</style>
<path d="M11.7,2c-0.1,0-0.1,0-0.2,0c0,0,0,0-0.1,0v0c-0.2,0-0.3,0-0.5,0l0.2,2c0.4,0,0.9,0,1.3,0c4,0.3,7.3,3.5,7.5,7.6
	c0.2,4.4-3.2,8.2-7.6,8.4c0,0-0.1,0-0.2,0c-0.3,0-0.7,0-1,0L11,22c0.4,0,0.8,0,1.3,0c0.1,0,0.3,0,0.4,0v0c5.4-0.4,9.5-5,9.3-10.4
	c-0.2-5.1-4.3-9.1-9.3-9.5v0c0,0,0,0,0,0c-0.2,0-0.3,0-0.5,0C12,2,11.9,2,11.7,2z M8.2,2.7C7.7,3,7.2,3.2,6.7,3.5l1.1,1.7
	C8.1,5,8.5,4.8,8.9,4.6L8.2,2.7z M4.5,5.4c-0.4,0.4-0.7,0.9-1,1.3l1.7,1C5.4,7.4,5.7,7.1,6,6.7L4.5,5.4z M15.4,8.4l-4.6,5.2
	l-2.7-2.1L7,13.2l4.2,3.2l5.8-6.6L15.4,8.4z M2.4,9c-0.2,0.5-0.3,1.1-0.3,1.6l2,0.3c0.1-0.4,0.1-0.9,0.3-1.3L2.4,9z M4.1,13l-2,0.2
	c0,0.1,0,0.2,0,0.3c0.1,0.4,0.2,0.9,0.3,1.3l1.9-0.6c-0.1-0.3-0.2-0.7-0.2-1.1L4.1,13z M5.2,16.2l-1.7,1.1c0.3,0.5,0.6,0.9,1,1.3
	L6,17.3C5.7,16.9,5.4,16.6,5.2,16.2z M7.8,18.8l-1.1,1.7c0.5,0.3,1,0.5,1.5,0.8l0.8-1.8C8.5,19.2,8.1,19,7.8,18.8z"/>
<rect class="st0" width="24" height="24"/>
</svg>