<?xml version="1.0" encoding="iso-8859-1"?>
<!-- Uploaded to: SVG Repo, www.svgrepo.com, Generator: SVG Repo Mixer Tools -->
<svg 
	fill="currentColor" 
	height="16" width="16" 
	version="1.1" 
	id="Capa_1" 
	xmlns="http://www.w3.org/2000/svg" 
	xmlns:xlink="http://www.w3.org/1999/xlink" 
	viewBox="0 0 255.355 255.355" xml:space="preserve"
>
	<g>
		<path d="M213.46,25.231L190.484,2.257c-2.343-2.342-6.142-2.343-8.485,0.001c-2.343,2.343-2.343,6.142,0,8.485l12.186,12.185
			h-57.498c-3.314,0-6,2.687-6,6s2.686,6,6,6h58.593l-12.69,12.691c-2.344,2.343-2.344,6.142,0.001,8.485
			c1.171,1.171,2.707,1.757,4.242,1.757s3.071-0.586,4.243-1.758l22.386-22.387C215.804,31.374,215.804,27.575,213.46,25.231z"/>
		<path d="M192.578,96.229c-6.353-4.247-12.952-5.882-18.102-6.433c-6.639-8.882-16.194-13.731-27.209-13.731
			c-2.417,0-4.878,0.231-7.35,0.69c-6.537-7.471-15.521-11.542-25.64-11.542c-0.187,0-0.373,0.002-0.561,0.005l-0.044-36.846
			c-0.01-8.464-3.266-16.01-9.166-21.249C99.335,2.529,92.503,0,85.268,0c-7.751,0-15.191,2.998-20.414,8.226
			c-5.239,5.247-8.004,12.236-7.994,20.215l0.065,53.176l0.041,33.746c-7.589,4.058-12.836,10.48-15.268,18.75
			c-3.747,12.739-0.761,29.146,9.129,50.159c6.509,13.827,14.322,25.925,18.063,31.441l1.658,22.07
			c0.741,9.854,9.062,17.572,18.942,17.572l78.648-0.097c9.488-0.012,17.575-7.115,18.81-16.523l3.055-23.263
			c18.568-29.113,25.378-59.282,20.237-89.681C207.442,109.245,199.091,100.582,192.578,96.229z M179.327,209.889
			c-0.565,0.874-0.939,1.864-1.074,2.896l-3.203,24.39c-0.456,3.479-3.419,5.867-6.928,5.871l-78.623-0.117c-0.003,0-0.006,0-0.009,0
			c-3.659,0-6.701-2.607-6.976-6.258l-1.759-23.302c-0.094-1.236-0.509-2.364-1.212-3.386c-7.197-10.457-47.38-71.446-14.839-85.049
			c2.59-1.083,4.269-3.607,4.265-6.414c-0.021-16.613-0.086-71.742-0.109-90.101c-0.014-10.947,8.197-16.423,16.408-16.423
			c8.195,0,16.391,5.462,16.404,16.389l0.051,42.288c0.005,3.916,3.193,6.986,6.973,6.986c0.362,0,0.73-0.027,1.101-0.086
			c1.39-0.219,2.899-0.36,4.48-0.36c5.906,0,12.797,1.978,18.077,9.293c1.311,1.816,3.411,2.811,5.589,2.811
			c0.611,0,1.23-0.078,1.839-0.239c2.07-0.547,4.661-1.013,7.484-1.013c6.17,0,13.447,2.225,18.814,10.681
			c1.076,1.696,2.904,2.752,4.911,2.824c7.091,0.256,23.55,3.363,27.416,26.223C201.992,148.981,200.341,177.409,179.327,209.889z"/>
	</g>
</svg>