<?xml version="1.0" encoding="iso-8859-1"?>
<!-- Generator: Adobe Illustrator 19.0.0, SVG Export Plug-In . SVG Version: 6.00 Build 0)  -->
<svg version="1.1" id="Capa_1" xmlns="http://www.w3.org/2000/svg" xmlns:xlink="http://www.w3.org/1999/xlink" x="0px" y="0px"
	 viewBox="0 0 490 490" style="enable-background:new 0 0 490 490;" xml:space="preserve">
<g>
	<g>
		<path d="M469.2,0H20.8C9.4,0,0,9.4,0,20.8v448.4C0,480.6,9.4,490,20.8,490h449.4c11.4,0,19.8-8.3,19.8-20.8V20.8
			C490,9.4,480.6,0,469.2,0z M306.9,449.4H184.1v-38.5h122.8L306.9,449.4L306.9,449.4z M41.6,369.3V121.7h407.8v247.6H41.6z
			 M184.1,41.6h122.8v38.5H184.1V41.6z M449.4,80.1H348.5V41.6h100.9V80.1z M142.5,41.6v38.5H41.6V41.6H142.5z M41.6,410.9h100.9
			v38.5H41.6V410.9z M348.5,449.4v-38.5h100.9v38.5H348.5z"/>
		<path d="M316.3,228.9l-104-69.7c-13.6-8.9-31.2,1.3-31.2,16.6v139.4c0,16.1,17.6,25.4,31.2,16.6l104-69.7
			C325.6,257.1,331.4,239.9,316.3,228.9z M221.6,276.7v-62.4l46.8,31.2L221.6,276.7z"/>
	</g>
</g>
<g>
</g>
<g>
</g>
<g>
</g>
<g>
</g>
<g>
</g>
<g>
</g>
<g>
</g>
<g>
</g>
<g>
</g>
<g>
</g>
<g>
</g>
<g>
</g>
<g>
</g>
<g>
</g>
<g>
</g>
</svg>
